HIERARCHY
ROOT joint_Root
{
  OFFSET 0 0 0
  CHANNELS 6 Xposition Yposition Zposition Zrotation Xrotation Yrotation
  JOINT Hips
  {
    OFFSET 0 93.9241 -3
    CHANNELS 6 Xposition Yposition Zposition Zrotation Xrotation Yrotation
    JOINT Spine
    {
      OFFSET 15.7357 0 0
      CHANNELS 6 Xposition Yposition Zposition Zrotation Xrotation Yrotation
      JOINT Chest
      {
        OFFSET 8.98455 -0.406207 0
        CHANNELS 6 Xposition Yposition Zposition Zrotation Xrotation Yrotation
        JOINT Neck
        {
          OFFSET 16.3773 0 0
          CHANNELS 6 Xposition Yposition Zposition Zrotation Xrotation Yrotation
          JOINT Head
          {
            OFFSET 6.45672 0 0
            CHANNELS 6 Xposition Yposition Zposition Zrotation Xrotation Yrotation
            End Site
            {
              OFFSET 0 0 0
            }
          }
        }
        JOINT Shoulder_L
        {
          OFFSET 12.9942 -0.242716 4.98039
          CHANNELS 6 Xposition Yposition Zposition Zrotation Xrotation Yrotation
          JOINT UpperArm_L
          {
            OFFSET 5.34809 0 0
            CHANNELS 6 Xposition Yposition Zposition Zrotation Xrotation Yrotation
            JOINT LowerArm_L
            {
              OFFSET 24.3286 1.87007e-05 0
              CHANNELS 6 Xposition Yposition Zposition Zrotation Xrotation Yrotation
              JOINT Hand_L
              {
                OFFSET 22.2916 0 0
                CHANNELS 6 Xposition Yposition Zposition Zrotation Xrotation Yrotation
                End Site
                {
                  OFFSET 0 0 0
                }
              }
            }
          }
        }
        JOINT Shoulder_R
        {
          OFFSET 12.9945 -0.242716 -4.98039
          CHANNELS 6 Xposition Yposition Zposition Zrotation Xrotation Yrotation
          JOINT UpperArm_R
          {
            OFFSET -5.34813 0 0
            CHANNELS 6 Xposition Yposition Zposition Zrotation Xrotation Yrotation
            JOINT LowerArm_R
            {
              OFFSET -24.3289 0.000322201 0
              CHANNELS 6 Xposition Yposition Zposition Zrotation Xrotation Yrotation
              JOINT Hand_R
              {
                OFFSET -22.2915 -0.000108084 0
                CHANNELS 6 Xposition Yposition Zposition Zrotation Xrotation Yrotation
                End Site
                {
                  OFFSET 0 0 0
                }
              }
            }
          }
        }
      }
    }
    JOINT UpperLeg_L
    {
      OFFSET -2.19248 -6.46944 0
      CHANNELS 6 Xposition Yposition Zposition Zrotation Xrotation Yrotation
      JOINT LowerLeg_L
      {
        OFFSET 39.0811 0 -1.23785e-05
        CHANNELS 6 Xposition Yposition Zposition Zrotation Xrotation Yrotation
        JOINT Foot_L
        {
          OFFSET 40.9854 0 -1.26872e-05
          CHANNELS 6 Xposition Yposition Zposition Zrotation Xrotation Yrotation
          JOINT Toes_L
          {
            OFFSET 11.7543 0 0
            CHANNELS 6 Xposition Yposition Zposition Zrotation Xrotation Yrotation
            End Site
            {
              OFFSET 0 0 0
            }
          }
        }
      }
    }
    JOINT UpperLeg_R
    {
      OFFSET -2.19251 6.46944 0
      CHANNELS 6 Xposition Yposition Zposition Zrotation Xrotation Yrotation
      JOINT LowerLeg_R
      {
        OFFSET -39.0811 -0.00228153 -0.0401928
        CHANNELS 6 Xposition Yposition Zposition Zrotation Xrotation Yrotation
        JOINT Foot_R
        {
          OFFSET -40.9854 0 0
          CHANNELS 6 Xposition Yposition Zposition Zrotation Xrotation Yrotation
          JOINT Toes_R
          {
            OFFSET -11.7543 0 0
            CHANNELS 6 Xposition Yposition Zposition Zrotation Xrotation Yrotation
            End Site
            {
              OFFSET 0 0 0
            }
          }
        }
      }
    }
  }
}
MOTION
Frames:	9
Frame Time:	0.0333333
0 0 0 0 0 -0 -3.15223 90.6355 -8.91079 102.253 67.222 -4.86298 15.7357 5.1072e-06 -5.51765e-07 37.0105 83.9048 -35.7662 8.98455 -0.406207 -4.3199e-07 -0.313341 -9.82029 2.46481 16.3773 -1.3905e-06 -6.99897e-07 -6.68724 -19.0782 1.09303 6.45672 -1.25837e-06 -1.02172e-07 -9.64568 -23.7157 5.49398 12.9942 -0.242716 4.98039 -90.0065 0.0958522 -101.162 5.34809 -7.22636e-06 -6.2814e-07 -62.608 8.55746 -8.93718 24.3286 1.87007e-05 4.90208e-06 5.70966 11.4377 -26.7573 22.2916 -9.88446e-07 4.63217e-06 8.54163 5.16256 3.64113 12.9945 -0.242716 -4.98039 88.5216 5.00999 -88.5359 -5.34813 -1.25947e-06 -3.79883e-06 -58.3565 -5.86228 20.8822 -24.3289 0.000322201 -8.65921e-06 3.0753 9.91144 -17.3408 -22.2915 -0.000108084 -4.47941e-06 8.7493 5.32727 -0.705487 -2.19248 -6.46944 -1.22534e-07 170.979 -26.0446 -7.51945 39.0811 -6.73843e-06 -1.23785e-05 0.243123 -0.414155 27.0598 40.9854 -6.48686e-06 -1.26872e-05 7.36511 -0.877547 -65.9466 11.7543 -2.30145e-07 3.05095e-06 0.222983 -0.258274 -19.0639 -2.19251 6.46944 -1.45247e-06 174.883 -0.219279 152.515 -39.0811 -0.00228153 -0.0401928 -0.218836 0.157129 52.708 -40.9854 7.72618e-06 5.99936e-06 4.70987 -19.1782 -49.9134 -11.7543 -5.6619e-06 -5.58687e-06 0.534251 -0.597653 -21.0358 
0 0 0 0 0 -0 -2.48374 90.7665 -9.04536 101.148 67.4816 -4.47267 15.7357 5.1072e-06 -5.51765e-07 34.7365 83.6113 -33.3487 8.98455 -0.406207 -4.3199e-07 -0.348155 -10.5959 2.74779 16.3773 -1.3905e-06 -6.99897e-07 -7.02323 -19.4156 1.19939 6.45672 -1.25837e-06 -1.02172e-07 -9.47464 -23.3407 5.7107 12.9942 -0.242716 4.98039 -89.9822 -0.341789 -102.006 5.34809 -7.22636e-06 -6.2814e-07 -61.5233 9.18999 -11.566 24.3286 1.87007e-05 4.90208e-06 6.05274 11.4711 -28.0659 22.2916 -9.88446e-07 4.63217e-06 8.41331 5.1623 3.64744 12.9945 -0.242716 -4.98039 88.4644 4.9893 -87.8678 -5.34813 -1.25947e-06 -3.79883e-06 -58.7785 -7.01854 22.3286 -24.3289 0.000322201 -8.65921e-06 3.12241 9.5681 -18.1746 -22.2915 -0.000108084 -4.47941e-06 9.22758 5.34023 -1.08616 -2.19248 -6.46944 -1.22534e-07 171.067 -25.8841 -7.39937 39.0811 -6.73843e-06 -1.23785e-05 0.227816 -0.399739 26.3435 40.9854 -6.48686e-06 -1.26872e-05 7.45446 -0.862595 -66.0479 11.7543 -2.30145e-07 3.05095e-06 0.193983 -0.2234 -18.7336 -2.19251 6.46944 -1.45247e-06 176.845 0.869471 152.513 -39.0811 -0.00228153 -0.0401928 -0.152535 0.159675 41.6085 -40.9854 7.72618e-06 5.99936e-06 3.06193 -20.086 -48.8181 -11.7543 -5.6619e-06 -5.58687e-06 0.506066 -0.563685 -20.7903 
0 0 0 0 0 -0 -1.69761 90.8133 -9.13712 100.574 67.578 -4.53555 15.7357 5.1072e-06 -5.51765e-07 33.0079 83.424 -31.5572 8.98455 -0.406207 -4.3199e-07 -0.451872 -11.1308 2.86283 16.3773 -1.3905e-06 -6.99897e-07 -7.2714 -19.7081 1.20781 6.45672 -1.25837e-06 -1.02172e-07 -9.25285 -23.2796 5.98665 12.9942 -0.242716 4.98039 -89.9686 -0.733134 -102.541 5.34809 -7.22636e-06 -6.2814e-07 -60.3033 10.4523 -14.2772 24.3286 1.87007e-05 4.90208e-06 6.59227 11.7725 -29.5278 22.2916 -9.88446e-07 4.63217e-06 8.53497 5.15789 3.75384 12.9945 -0.242716 -4.98039 88.4899 4.79242 -87.4876 -5.34813 -1.25947e-06 -3.79883e-06 -59.4615 -8.09984 23.6256 -24.3289 0.000322201 -8.65921e-06 3.0806 9.34151 -18.3493 -22.2915 -0.000108084 -4.47941e-06 9.15397 5.34293 -1.16593 -2.19248 -6.46944 -1.22534e-07 170.974 -25.6961 -7.277 39.0811 -6.73843e-06 -1.23785e-05 0.213358 -0.380424 25.9257 40.9854 -6.48686e-06 -1.26872e-05 7.48137 -0.948218 -66.3994 11.7543 -2.30145e-07 3.05095e-06 0.165464 -0.189465 -18.4106 -2.19251 6.46944 -1.45247e-06 178.761 2.08893 153.718 -39.0811 -0.00228153 -0.0401928 -0.0927655 0.149267 29.1358 -40.9854 7.72618e-06 5.99936e-06 2.2272 -19.9492 -48.3306 -11.7543 -5.6619e-06 -5.58687e-06 0.489224 -0.543521 -20.6444 
0 0 0 0 0 -0 -0.728462 90.7621 -9.20944 100.515 67.4757 -4.94558 15.7357 5.1072e-06 -5.51765e-07 31.9592 83.3559 -30.5598 8.98455 -0.406207 -4.3199e-07 -0.586358 -11.3738 2.74606 16.3773 -1.3905e-06 -6.99897e-07 -7.42546 -19.9129 1.1232 6.45672 -1.25837e-06 -1.02172e-07 -8.91807 -23.3367 6.35145 12.9942 -0.242716 4.98039 -89.9564 -1.19663 -102.912 5.34809 -7.22636e-06 -6.2814e-07 -59.4489 11.2111 -16.8355 24.3286 1.87007e-05 4.90208e-06 7.64163 12.775 -31.2465 22.2916 -9.88446e-07 4.63217e-06 8.16249 5.17326 3.3803 12.9945 -0.242716 -4.98039 88.5414 4.58549 -87.3336 -5.34813 -1.25947e-06 -3.79883e-06 -60.4054 -8.61191 24.6798 -24.3289 0.000322201 -8.65921e-06 2.92628 9.19462 -17.746 -22.2915 -0.000108084 -4.47941e-06 8.58384 5.33793 -1.01743 -2.19248 -6.46944 -1.22534e-07 170.692 -25.2776 -7.07903 39.0811 -6.73843e-06 -1.23785e-05 0.196506 -0.346915 25.8469 40.9854 -6.48686e-06 -1.26872e-05 7.38014 -1.51189 -67.0063 11.7543 -2.30145e-07 3.05095e-06 0.146428 -0.167039 -18.1962 -2.19251 6.46944 -1.45247e-06 -179.583 3.16785 155.874 -39.0811 -0.00228153 -0.0401928 -0.0377924 0.0939157 16.1755 -40.9854 7.72618e-06 5.99936e-06 0.809727 -18.4246 -46.0369 -11.7543 -5.6619e-06 -5.58687e-06 0.493076 -0.548134 -20.6777 
0 0 0 0 0 -0 0.43996 90.6101 -9.25577 100.651 67.2354 -5.32134 15.7357 5.1072e-06 -5.51765e-07 31.8208 83.3403 -30.5026 8.98455 -0.406207 -4.3199e-07 -0.605276 -11.4112 2.58138 16.3773 -1.3905e-06 -6.99897e-07 -7.39793 -19.9826 1.06773 6.45672 -1.25837e-06 -1.02172e-07 -8.88516 -23.4771 6.5352 12.9942 -0.242716 4.98039 -89.9476 -1.51108 -103.013 5.34809 -7.22636e-06 -6.2814e-07 -59.0659 11.3251 -19.1425 24.3286 1.87007e-05 4.90208e-06 8.71743 13.4836 -33.3285 22.2916 -9.88446e-07 4.63217e-06 7.6583 5.1915 2.93072 12.9945 -0.242716 -4.98039 88.6252 4.32648 -87.3523 -5.34813 -1.25947e-06 -3.79883e-06 -61.49 -8.66477 25.2607 -24.3289 0.000322201 -8.65921e-06 2.77675 9.43834 -16.4828 -22.2915 -0.000108084 -4.47941e-06 7.79537 5.33077 -0.805859 -2.19248 -6.46944 -1.22534e-07 170.305 -24.0229 -6.77264 39.0811 -6.73843e-06 -1.23785e-05 0.178105 -0.303374 26.1769 40.9854 -6.48686e-06 -1.26872e-05 7.04171 -3.03867 -67.8383 11.7543 -2.30145e-07 3.05095e-06 0.0812014 -0.0914354 -17.4685 -2.19251 6.46944 -1.45247e-06 -177.867 4.74784 156.473 -39.0811 -0.00228153 -0.0401928 -0.00656703 0.0317959 7.71805 -40.9854 7.72618e-06 5.99936e-06 -1.24961 -16.842 -44.0554 -11.7543 -5.6619e-06 -5.58687e-06 0.497486 -0.553393 -20.7158 
0 0 0 0 0 -0 1.79006 90.4021 -9.24728 100.74 67 -5.58649 15.7357 5.1072e-06 -5.51765e-07 32.2707 83.3683 -31.019 8.98455 -0.406207 -4.3199e-07 -0.553874 -11.3033 2.45343 16.3773 -1.3905e-06 -6.99897e-07 -7.27817 -19.9696 0.928089 6.45672 -1.25837e-06 -1.02172e-07 -9.04695 -23.6997 6.76642 12.9942 -0.242716 4.98039 -89.9455 -1.53792 -102.969 5.34809 -7.22636e-06 -6.2814e-07 -58.5934 11.6274 -21.2936 24.3286 1.87007e-05 4.90208e-06 9.51114 13.6265 -35.4176 22.2916 -9.88446e-07 4.63217e-06 7.58165 5.20818 2.5134 12.9945 -0.242716 -4.98039 88.6605 4.24785 -87.4804 -5.34813 -1.25947e-06 -3.79883e-06 -62.3047 -8.56992 25.4658 -24.3289 0.000322201 -8.65921e-06 2.61258 9.8857 -14.8896 -22.2915 -0.000108084 -4.47941e-06 6.75882 5.31678 -0.401386 -2.19248 -6.46944 -1.22534e-07 170.011 -23.1107 -6.2994 39.0811 -6.73843e-06 -1.23785e-05 0.164951 -0.267947 26.6611 40.9854 -6.48686e-06 -1.26872e-05 6.73903 -4.20873 -68.9484 11.7543 -2.30145e-07 3.05095e-06 0.0445552 -0.0498346 -17.0647 -2.19251 6.46944 -1.45247e-06 -176.111 6.61524 154.92 -39.0811 -0.00228153 -0.0401928 0.0022589 0.0462423 4.95529 -40.9854 7.72618e-06 5.99936e-06 -4.55895 -15.7891 -44.432 -11.7543 -5.6619e-06 -5.58687e-06 0.511733 -0.570465 -20.8396 
0 0 0 0 0 -0 3.36711 90.1494 -9.1554 101.185 67.0167 -6.19572 15.7357 5.1072e-06 -5.51765e-07 31.869 83.4115 -30.7032 8.98455 -0.406207 -4.3199e-07 -0.689002 -11.2746 2.2683 16.3773 -1.3905e-06 -6.99897e-07 -6.91872 -19.9198 0.765939 6.45672 -1.25837e-06 -1.02172e-07 -9.19542 -23.9093 6.81208 12.9942 -0.242716 4.98039 -89.9452 -1.58688 -103.021 5.34809 -7.22636e-06 -6.2814e-07 -58.6856 11.7695 -22.8257 24.3286 1.87007e-05 4.90208e-06 10.8574 14.416 -37.6086 22.2916 -9.88446e-07 4.63217e-06 7.31459 5.22148 2.17392 12.9945 -0.242716 -4.98039 88.7362 4.03814 -87.6058 -5.34813 -1.25947e-06 -3.79883e-06 -63.0845 -8.32987 25.38 -24.3289 0.000322201 -8.65921e-06 2.42415 10.354 -13.2603 -22.2915 -0.000108084 -4.47941e-06 5.97687 5.2989 0.104483 -2.19248 -6.46944 -1.22534e-07 169.937 -23.8601 -5.47834 39.0811 -6.73843e-06 -1.23785e-05 0.150445 -0.232731 27.0883 40.9854 -6.48686e-06 -1.26872e-05 6.79941 -3.51199 -70.4194 11.7543 -2.30145e-07 3.05095e-06 0.0137283 -0.0152643 -16.7271 -2.19251 6.46944 -1.45247e-06 -175.188 7.50052 155.078 -39.0811 -0.00228153 -0.0401928 0.00376969 0.0367805 1.10894 -40.9854 7.72618e-06 5.99936e-06 -7.49009 -15.7956 -46.4644 -11.7543 -5.6619e-06 -5.58687e-06 0.509001 -0.567198 -20.8158 
0 0 0 0 0 -0 5.12285 89.8696 -9.01506 102.089 67.3575 -7.42721 15.7357 5.1072e-06 -5.51765e-07 30.2872 83.4472 -29.24 8.98455 -0.406207 -4.3199e-07 -1.05218 -11.395 1.99381 16.3773 -1.3905e-06 -6.99897e-07 -6.57509 -19.9469 0.595829 6.45672 -1.25837e-06 -1.02172e-07 -9.06257 -24.0422 6.81475 12.9942 -0.242716 4.98039 -89.9419 -1.71932 -103.062 5.34809 -7.22636e-06 -6.2814e-07 -59.0677 11.9897 -23.8395 24.3286 1.87007e-05 4.90208e-06 12.3552 15.2822 -39.7272 22.2916 -9.88446e-07 4.63217e-06 6.8987 5.23698 1.77406 12.9945 -0.242716 -4.98039 88.8561 3.68377 -87.7359 -5.34813 -1.25947e-06 -3.79883e-06 -63.7206 -8.43947 25.0972 -24.3289 0.000322201 -8.65921e-06 2.3748 11.1867 -12.0719 -22.2915 -0.000108084 -4.47941e-06 5.59126 5.282 0.571344 -2.19248 -6.46944 -1.22534e-07 169.576 -23.2646 -4.65545 39.0811 -6.73843e-06 -1.23785e-05 0.131013 -0.191291 27.3374 40.9854 -6.48686e-06 -1.26872e-05 6.62468 -3.69691 -71.7825 11.7543 -2.30145e-07 3.05095e-06 -0.0339572 0.0198871 -16.577 -2.19251 6.46944 -1.45247e-06 -174.882 7.9472 154.591 -39.0811 -0.00228153 -0.0401928 0.00402034 0.0264425 0.080534 -40.9854 7.72618e-06 5.99936e-06 -6.86239 -15.9108 -48.2768 -11.7543 -5.6619e-06 -5.58687e-06 0.525911 -0.587575 -20.9631 
0 0 0 0 0 -0 7.05581 89.6043 -8.75186 102.463 68.062 -8.13036 15.7357 5.1072e-06 -5.51765e-07 28.9646 83.4527 -27.9457 8.98455 -0.406207 -4.3199e-07 -1.32582 -11.535 1.90847 16.3773 -1.3905e-06 -6.99897e-07 -6.19154 -20.0471 0.517122 6.45672 -1.25837e-06 -1.02172e-07 -9.04913 -24.3107 6.87257 12.9942 -0.242716 4.98039 -89.9386 -1.77912 -103.021 5.34809 -7.22636e-06 -6.2814e-07 -59.3931 12.5641 -24.8237 24.3286 1.87007e-05 4.90208e-06 13.1901 15.6162 -41.0434 22.2916 -9.88446e-07 4.63217e-06 6.88091 5.24459 1.57544 12.9945 -0.242716 -4.98039 88.9211 3.47498 -87.7398 -5.34813 -1.25947e-06 -3.79883e-06 -64.0323 -8.4454 24.7347 -24.3289 0.000322201 -8.65921e-06 2.30586 11.318 -11.6 -22.2915 -0.000108084 -4.47941e-06 5.5584 5.27598 0.735624 -2.19248 -6.46944 -1.22534e-07 169.706 -22.9111 -3.41987 39.0811 -6.73843e-06 -1.23785e-05 0.113038 -0.155896 27.3634 40.9854 -6.48686e-06 -1.26872e-05 6.49667 -3.34811 -73.2238 11.7543 -2.30145e-07 3.05095e-06 -0.0437096 0.0259847 -16.5769 -2.19251 6.46944 -1.45247e-06 -174.67 8.42064 154.009 -39.0811 -0.00228153 -0.0401928 -0.00229086 0.0376438 0.914569 -40.9854 7.72618e-06 5.99936e-06 -4.53967 -17.4018 -46.7971 -11.7543 -5.6619e-06 -5.58687e-06 0.514878 -0.574258 -20.8669 
